subject_scale_walk_states
version=1
nRows=26
nColumns=9
inDegrees=yes

# SIMM Motion File Header:
name subject_scale_walk_states
datacolumns 9
datarows 26
otherdata 1
range 0.00000000 0.83881565
endheader
time	/jointset/hip_r/hip_flexion_r/value	/jointset/hip_r/hip_flexion_r/speed	/jointset/walker_knee_r/knee_angle_r/value	/jointset/walker_knee_r/knee_angle_r/speed	/jointset/patellofemoral_r/knee_angle_r_beta/value	/jointset/patellofemoral_r/knee_angle_r_beta/speed	/jointset/ankle_r/ankle_angle_r/value	/jointset/ankle_r/ankle_angle_r/speed
      0.00000000	     89.99999999	      0.00000000	      0.16401633	      7.52946367	      0.00286262	      0.13141393	      0.00000000	      0.00000000
      0.01000000	     89.99999999	     -0.00000000	      0.23939027	      7.54776684	      0.00417815	      0.13173338	      0.00000000	      0.00000000
      0.04239315	     89.99999999	     -0.00000000	      0.48600363	      7.70143813	      0.00848236	      0.13441545	      0.00000000	      0.00000000
      0.08453958	     89.99999999	     -0.00000000	      0.81799046	      8.08213562	      0.01427663	      0.14105988	      0.00000000	     -0.00000000
      0.11582747	     89.99999999	     -0.00000000	      1.07663997	      8.46253435	      0.01879091	      0.14769909	      0.00000000	     -0.00000000
      0.12661485	     89.99999999	     -0.00000000	      1.16871760	      8.61307827	      0.02039797	      0.15032657	     -0.00000000	     -0.00000000
      0.13740224	     89.99999999	     -0.00000000	      1.26260013	      8.79902448	      0.02203653	      0.15357195	     -0.00000000	     -0.00000000
      0.19133916	     89.99999999	     -0.00000000	      1.77228237	     10.23005468	      0.03093216	      0.17854814	     -0.00000000	     -0.00000000
      0.22106197	     89.99999999	     -0.00000000	      2.09201854	     11.31369013	      0.03651261	      0.19746114	     -0.00000000	     -0.00000000
      0.24030042	     89.99999999	     -0.00000000	      2.31712412	     12.09687354	      0.04044145	      0.21113027	     -0.00000000	     -0.00000000
      0.27197184	     89.99999999	     -0.00000000	      2.72357294	     13.63570320	      0.04753532	      0.23798792	     -0.00000000	     -0.00000000
      0.33500577	     89.99999999	     -0.00000000	      3.70293966	     17.57027389	      0.06462849	      0.30665913	     -0.00000000	     -0.00000000
      0.35897404	     89.99999999	     -0.00000000	      4.14334273	     19.17477347	      0.07231497	      0.33466293	     -0.00000000	     -0.00000000
      0.39287066	     89.99999999	     -0.00000000	      4.83192662	     21.46084753	      0.08433303	      0.37456245	     -0.00000000	     -0.00000000
      0.42676729	     89.99999999	     -0.00000000	      5.59708012	     23.63983806	      0.09768748	      0.41259301	     -0.00000000	     -0.00000000
      0.47572842	     89.99999999	     -0.00000000	      6.81581194	     25.89746922	      0.11895836	      0.45199611	     -0.00000000	     -0.00000000
      0.48643731	     89.99999999	     -0.00000000	      7.09465618	     26.16631661	      0.12382511	      0.45668838	     -0.00000000	     -0.00000000
      0.49985986	     89.99999999	     -0.00000000	      7.44757390	     26.39931000	      0.12998469	      0.46075488	     -0.00000000	     -0.00000000
      0.53809750	     89.99999999	     -0.00000000	      8.45885122	     26.28389437	      0.14763480	      0.45874050	     -0.00000000	     -0.00000000
      0.60200570	     89.99999999	     -0.00000000	     10.05183636	     22.85258220	      0.17543764	      0.39885280	     -0.00000000	     -0.00000000
      0.66591391	     89.99999999	     -0.00000000	     11.30485642	     16.00784435	      0.19730697	      0.27938959	     -0.00000000	     -0.00000000
      0.70300824	     89.99999999	     -0.00000000	     11.81514402	     11.51740564	      0.20621316	      0.20101665	     -0.00000000	     -0.00000000
      0.72104288	     89.99999999	     -0.00000000	     12.00393139	      9.44249233	      0.20950813	      0.16480258	     -0.00000000	     -0.00000000
      0.73907753	     89.99999999	     -0.00000000	     12.15711247	      7.59643113	      0.21218164	      0.13258273	     -0.00000000	     -0.00000000
      0.78234554	     89.99999999	     -0.00000000	     12.41384366	      4.65382794	      0.21666244	      0.08122462	     -0.00000000	     -0.00000000
      0.83881565	     89.99999999	     -0.00000000	     12.65383203	      4.56564208	      0.22085103	      0.07968549	     -0.00000000	     -0.00000000
